<svg width="27" height="22" viewBox="0 0 27 22" fill="none" xmlns="http://www.w3.org/2000/svg">
<path d="M1.33203 5.33301L11.852 12.3463C12.2902 12.6387 12.8052 12.7947 13.332 12.7947C13.8588 12.7947 14.3738 12.6387 14.812 12.3463L25.332 5.33301M3.9987 19.9997H22.6654C23.3726 19.9997 24.0509 19.7187 24.551 19.2186C25.0511 18.7185 25.332 18.0403 25.332 17.333V3.99967C25.332 3.29243 25.0511 2.61415 24.551 2.11406C24.0509 1.61396 23.3726 1.33301 22.6654 1.33301H3.9987C3.29145 1.33301 2.61318 1.61396 2.11308 2.11406C1.61298 2.61415 1.33203 3.29243 1.33203 3.99967V17.333C1.33203 18.0403 1.61298 18.7185 2.11308 19.2186C2.61318 19.7187 3.29145 19.9997 3.9987 19.9997Z" stroke="#38BDF8" stroke-width="2.66667" stroke-linecap="round" stroke-linejoin="round"/>
</svg>
