<svg width="34" height="34" viewBox="0 0 34 34" fill="none" xmlns="http://www.w3.org/2000/svg">
<path d="M10.0013 8.33366V1.66699M23.3346 8.33366V1.66699M8.33464 15.0003H25.0013M5.0013 31.667H28.3346C29.2187 31.667 30.0665 31.3158 30.6917 30.6907C31.3168 30.0656 31.668 29.2177 31.668 28.3337V8.33366C31.668 7.4496 31.3168 6.60176 30.6917 5.97664C30.0665 5.35151 29.2187 5.00033 28.3346 5.00033H5.0013C4.11725 5.00033 3.2694 5.35151 2.64428 5.97664C2.01916 6.60176 1.66797 7.4496 1.66797 8.33366V28.3337C1.66797 29.2177 2.01916 30.0656 2.64428 30.6907C3.2694 31.3158 4.11725 31.667 5.0013 31.667Z" stroke="#38BDF8" stroke-width="3.33333" stroke-linecap="round" stroke-linejoin="round"/>
</svg>
