<svg width="17" height="17" viewBox="0 0 17 17" fill="none" xmlns="http://www.w3.org/2000/svg">
<path d="M0.832031 2.49967C0.832031 2.05765 1.00763 1.63372 1.32019 1.32116C1.63275 1.0086 2.05667 0.833008 2.4987 0.833008H5.23203C5.40686 0.833141 5.57722 0.888255 5.71899 0.990549C5.86077 1.09284 5.96679 1.23714 6.02203 1.40301L7.27036 5.14717C7.33362 5.33746 7.32614 5.54417 7.2493 5.72938C7.17245 5.91459 7.03141 6.06589 6.85203 6.15551L4.9712 7.09717C5.89313 9.13762 7.52742 10.7719 9.56786 11.6938L10.5095 9.81301C10.5992 9.63363 10.7504 9.49258 10.9357 9.41574C11.1209 9.3389 11.3276 9.33142 11.5179 9.39467L15.262 10.643C15.428 10.6983 15.5724 10.8044 15.6747 10.9464C15.777 11.0883 15.8321 11.2589 15.832 11.4338V14.1663C15.832 14.6084 15.6564 15.0323 15.3439 15.3449C15.0313 15.6574 14.6074 15.833 14.1654 15.833H13.332C6.4287 15.833 0.832031 10.2363 0.832031 3.33301V2.49967Z" stroke="white" stroke-width="1.66667" stroke-linecap="round" stroke-linejoin="round"/>
</svg>
