<svg width="34" height="34" viewBox="0 0 34 34" fill="none" xmlns="http://www.w3.org/2000/svg">
<path d="M28.3346 15.0003H5.0013M28.3346 15.0003C29.2187 15.0003 30.0665 15.3515 30.6917 15.9766C31.3168 16.6018 31.668 17.4496 31.668 18.3337V28.3337C31.668 29.2177 31.3168 30.0656 30.6917 30.6907C30.0665 31.3158 29.2187 31.667 28.3346 31.667H5.0013C4.11725 31.667 3.2694 31.3158 2.64428 30.6907C2.01916 30.0656 1.66797 29.2177 1.66797 28.3337V18.3337C1.66797 17.4496 2.01916 16.6018 2.64428 15.9766C3.2694 15.3515 4.11725 15.0003 5.0013 15.0003M28.3346 15.0003V11.667C28.3346 10.7829 27.9834 9.93509 27.3583 9.30997C26.7332 8.68485 25.8854 8.33366 25.0013 8.33366M5.0013 15.0003V11.667C5.0013 10.7829 5.35249 9.93509 5.97761 9.30997C6.60273 8.68485 7.45058 8.33366 8.33464 8.33366M25.0013 8.33366V5.00033C25.0013 4.11627 24.6501 3.26842 24.025 2.6433C23.3999 2.01818 22.552 1.66699 21.668 1.66699H11.668C10.7839 1.66699 9.93607 2.01818 9.31095 2.6433C8.68582 3.26842 8.33464 4.11627 8.33464 5.00033V8.33366M25.0013 8.33366H8.33464" stroke="#1E3A8A" stroke-width="3.33333" stroke-linecap="round" stroke-linejoin="round"/>
</svg>
