<svg width="34" height="34" viewBox="0 0 34 34" fill="none" xmlns="http://www.w3.org/2000/svg">
<path d="M11.668 16.667L15.0013 20.0003L21.668 13.3337M31.668 16.667C31.668 18.6368 31.28 20.5874 30.5262 22.4072C29.7723 24.2271 28.6674 25.8807 27.2746 27.2736C25.8817 28.6665 24.2281 29.7714 22.4082 30.5252C20.5883 31.279 18.6378 31.667 16.668 31.667C14.6981 31.667 12.7476 31.279 10.9277 30.5252C9.10783 29.7714 7.45425 28.6665 6.06137 27.2736C4.66849 25.8807 3.5636 24.2271 2.80978 22.4072C2.05596 20.5874 1.66797 18.6368 1.66797 16.667C1.66797 12.6887 3.24832 8.87344 6.06137 6.06039C8.87441 3.24734 12.6897 1.66699 16.668 1.66699C20.6462 1.66699 24.4615 3.24734 27.2746 6.06039C30.0876 8.87344 31.668 12.6887 31.668 16.667Z" stroke="#FACC15" stroke-width="3.33333" stroke-linecap="round" stroke-linejoin="round"/>
</svg>
