<svg width="17" height="14" viewBox="0 0 17 14" fill="none" xmlns="http://www.w3.org/2000/svg">
<path d="M0.832031 3.33301L7.40703 7.71634C7.68091 7.89907 8.00278 7.99659 8.33203 7.99659C8.66128 7.99659 8.98315 7.89907 9.25703 7.71634L15.832 3.33301M2.4987 12.4997H14.1654C14.6074 12.4997 15.0313 12.3241 15.3439 12.0115C15.6564 11.699 15.832 11.275 15.832 10.833V2.49967C15.832 2.05765 15.6564 1.63372 15.3439 1.32116C15.0313 1.0086 14.6074 0.833008 14.1654 0.833008H2.4987C2.05667 0.833008 1.63275 1.0086 1.32019 1.32116C1.00763 1.63372 0.832031 2.05765 0.832031 2.49967V10.833C0.832031 11.275 1.00763 11.699 1.32019 12.0115C1.63275 12.3241 2.05667 12.4997 2.4987 12.4997Z" stroke="white" stroke-width="1.66667" stroke-linecap="round" stroke-linejoin="round"/>
</svg>
