<svg width="1080" height="1081" viewBox="0 0 1080 1081" fill="none" xmlns="http://www.w3.org/2000/svg">
<path d="M67.5 1030.35H337.5C339.716 1030.35 341.911 1029.92 343.959 1029.07C346.007 1028.22 347.868 1026.98 349.435 1025.41C351.003 1023.85 352.245 1021.99 353.093 1019.94C353.941 1017.89 354.376 1015.69 354.375 1013.48C354.323 983.253 345.258 953.731 328.338 928.686C311.418 903.64 287.413 884.211 259.391 872.882C271.956 861.409 280.759 846.406 284.645 829.842C288.531 813.277 287.318 795.925 281.166 780.062C275.013 764.199 264.209 750.566 250.17 740.953C236.131 731.341 219.514 726.197 202.5 726.197C185.486 726.197 168.869 731.341 154.83 740.953C140.791 750.566 129.987 764.199 123.834 780.062C117.682 795.925 116.469 813.277 120.355 829.842C124.241 846.406 133.044 861.409 145.609 872.882C117.587 884.211 93.5818 903.64 76.6619 928.686C59.742 953.731 50.6766 983.253 50.625 1013.48C50.6237 1015.69 51.0593 1017.89 51.9069 1019.94C52.7545 1021.99 53.9975 1023.85 55.5647 1025.41C57.132 1026.98 58.9927 1028.22 61.0407 1029.07C63.0886 1029.92 65.2836 1030.35 67.5 1030.35ZM151.875 810.978C151.875 800.966 154.844 791.178 160.407 782.853C165.97 774.527 173.876 768.039 183.127 764.207C192.377 760.375 202.556 759.373 212.376 761.326C222.197 763.279 231.217 768.101 238.297 775.181C245.377 782.261 250.199 791.282 252.152 801.102C254.106 810.922 253.103 821.101 249.271 830.352C245.44 839.602 238.951 847.509 230.626 853.071C222.301 858.634 212.513 861.603 202.5 861.603C189.078 861.589 176.21 856.25 166.719 846.759C157.228 837.269 151.89 824.4 151.875 810.978ZM202.5 895.353C230.897 895.385 258.335 905.632 279.802 924.221C301.269 942.811 315.332 968.502 319.422 996.603H85.5779C89.6684 968.502 103.731 942.811 125.198 924.221C146.665 905.632 174.103 895.385 202.5 895.353ZM934.391 872.882C946.956 861.409 955.759 846.406 959.645 829.842C963.531 813.277 962.318 795.925 956.165 780.062C950.013 764.199 939.209 750.566 925.17 740.953C911.131 731.341 894.514 726.197 877.5 726.197C860.486 726.197 843.869 731.341 829.83 740.953C815.791 750.566 804.987 764.199 798.835 780.062C792.682 795.925 791.469 813.277 795.355 829.842C799.241 846.406 808.044 861.409 820.609 872.882C792.587 884.211 768.582 903.64 751.662 928.686C734.742 953.731 725.677 983.253 725.625 1013.48C725.624 1015.69 726.059 1017.89 726.907 1019.94C727.755 1021.99 728.997 1023.85 730.565 1025.41C732.132 1026.98 733.993 1028.22 736.041 1029.07C738.089 1029.92 740.284 1030.35 742.5 1030.35H1012.5C1014.72 1030.35 1016.91 1029.92 1018.96 1029.07C1021.01 1028.22 1022.87 1026.98 1024.44 1025.41C1026 1023.85 1027.25 1021.99 1028.09 1019.94C1028.94 1017.89 1029.38 1015.69 1029.38 1013.48C1029.32 983.253 1020.26 953.731 1003.34 928.686C986.418 903.64 962.413 884.211 934.391 872.882ZM826.875 810.978C826.875 800.966 829.844 791.178 835.407 782.853C840.97 774.527 848.876 768.039 858.127 764.207C867.377 760.375 877.556 759.373 887.376 761.326C897.197 763.279 906.217 768.101 913.297 775.181C920.377 782.261 925.199 791.282 927.152 801.102C929.106 810.922 928.103 821.101 924.271 830.352C920.44 839.602 913.951 847.509 905.626 853.071C897.3 858.634 887.513 861.603 877.5 861.603C864.078 861.589 851.21 856.25 841.719 846.759C832.228 837.269 826.89 824.4 826.875 810.978ZM760.578 996.603C764.638 968.489 778.692 942.779 800.166 924.184C821.639 905.589 849.094 895.354 877.5 895.354C905.906 895.354 933.361 905.589 954.834 924.184C976.308 942.779 990.362 968.489 994.422 996.603H760.578ZM67.5 355.353H337.5C339.716 355.355 341.911 354.919 343.959 354.071C346.007 353.224 347.868 351.981 349.435 350.414C351.003 348.846 352.245 346.986 353.093 344.938C353.941 342.89 354.376 340.695 354.375 338.478C354.323 308.253 345.258 278.731 328.338 253.686C311.418 228.64 287.413 209.211 259.391 197.882C271.956 186.409 280.759 171.406 284.645 154.842C288.531 138.277 287.318 120.925 281.166 105.062C275.013 89.1985 264.209 75.5661 250.17 65.9534C236.131 56.3407 219.514 51.1968 202.5 51.1968C185.486 51.1968 168.869 56.3407 154.83 65.9534C140.791 75.5661 129.987 89.1985 123.834 105.062C117.682 120.925 116.469 138.277 120.355 154.842C124.241 171.406 133.044 186.409 145.609 197.882C117.587 209.211 93.5818 228.64 76.6619 253.686C59.742 278.731 50.6766 308.253 50.625 338.478C50.6237 340.695 51.0593 342.89 51.9069 344.938C52.7545 346.986 53.9975 348.846 55.5647 350.414C57.132 351.981 58.9927 353.224 61.0407 354.071C63.0886 354.919 65.2836 355.355 67.5 355.353ZM151.875 135.978C151.875 125.966 154.844 116.178 160.407 107.853C165.97 99.5274 173.876 93.0386 183.127 89.207C192.377 85.3753 202.556 84.3727 212.376 86.3261C222.197 88.2795 231.217 93.101 238.297 100.181C245.377 107.261 250.199 116.282 252.152 126.102C254.106 135.922 253.103 146.101 249.271 155.352C245.44 164.602 238.951 172.509 230.626 178.072C222.301 183.634 212.513 186.603 202.5 186.603C189.078 186.589 176.21 181.25 166.719 171.759C157.228 162.269 151.89 149.4 151.875 135.978ZM202.5 220.353C230.897 220.385 258.335 230.632 279.802 249.221C301.269 267.811 315.332 293.502 319.422 321.603H85.5779C89.6684 293.502 103.731 267.811 125.198 249.221C146.665 230.632 174.103 220.385 202.5 220.353ZM934.391 197.882C946.956 186.409 955.759 171.406 959.645 154.842C963.531 138.277 962.318 120.925 956.165 105.062C950.013 89.1985 939.209 75.5661 925.17 65.9534C911.131 56.3407 894.514 51.1968 877.5 51.1968C860.486 51.1968 843.869 56.3407 829.83 65.9534C815.791 75.5661 804.987 89.1985 798.835 105.062C792.682 120.925 791.469 138.277 795.355 154.842C799.241 171.406 808.044 186.409 820.609 197.882C792.587 209.211 768.582 228.64 751.662 253.686C734.742 278.731 725.677 308.253 725.625 338.478C725.624 340.695 726.059 342.89 726.907 344.938C727.755 346.986 728.997 348.846 730.565 350.414C732.132 351.981 733.993 353.224 736.041 354.071C738.089 354.919 740.284 355.355 742.5 355.353H1012.5C1014.72 355.355 1016.91 354.919 1018.96 354.071C1021.01 353.224 1022.87 351.981 1024.44 350.414C1026 348.846 1027.25 346.986 1028.09 344.938C1028.94 342.89 1029.38 340.695 1029.38 338.478C1029.32 308.253 1020.26 278.731 1003.34 253.686C986.418 228.64 962.413 209.211 934.391 197.882ZM826.875 135.978C826.875 125.966 829.844 116.178 835.407 107.853C840.97 99.5274 848.876 93.0386 858.127 89.207C867.377 85.3753 877.556 84.3727 887.376 86.3261C897.197 88.2795 906.217 93.101 913.297 100.181C920.377 107.261 925.199 116.282 927.152 126.102C929.106 135.922 928.103 146.101 924.271 155.352C920.44 164.602 913.951 172.509 905.626 178.072C897.3 183.634 887.513 186.603 877.5 186.603C864.078 186.589 851.21 181.25 841.719 171.759C832.228 162.269 826.89 149.4 826.875 135.978ZM760.578 321.603C764.638 293.489 778.692 267.779 800.166 249.184C821.639 230.589 849.094 220.354 877.5 220.354C905.906 220.354 933.361 230.589 954.834 249.184C976.308 267.779 990.362 293.489 994.422 321.603H760.578ZM200.16 390.257C198.095 389.45 195.89 389.058 193.673 389.105C191.456 389.152 189.271 389.637 187.242 390.531C185.213 391.426 183.38 392.712 181.85 394.317C180.319 395.921 179.121 397.812 178.324 399.881C143.057 490.641 143.057 591.316 178.324 682.076C179.553 685.25 181.715 687.979 184.524 689.902C187.333 691.826 190.658 692.854 194.062 692.853C196.149 692.856 198.218 692.464 200.16 691.7C202.226 690.9 204.114 689.702 205.716 688.173C207.319 686.644 208.605 684.814 209.5 682.788C210.395 680.761 210.882 678.579 210.934 676.364C210.986 674.15 210.6 671.947 209.8 669.881C177.567 586.969 177.567 494.988 209.8 412.076C210.6 410.01 210.986 407.807 210.934 405.593C210.882 403.378 210.395 401.195 209.5 399.169C208.605 397.143 207.319 395.313 205.716 393.784C204.114 392.255 202.226 391.056 200.16 390.257ZM472.846 922.676C477.064 922.673 481.127 921.09 484.235 918.239C487.344 915.389 489.272 911.477 489.64 907.276C490.008 903.074 488.789 898.887 486.224 895.54C483.658 892.192 479.932 889.927 475.779 889.19C429.745 880.991 385.84 863.581 346.696 838.005C344.839 836.793 342.761 835.959 340.582 835.551C338.402 835.142 336.164 835.168 333.994 835.625C331.825 836.083 329.767 836.964 327.938 838.218C326.109 839.472 324.546 841.074 323.337 842.933C322.128 844.792 321.298 846.871 320.893 849.051C320.488 851.231 320.518 853.47 320.979 855.638C321.44 857.807 322.325 859.864 323.582 861.69C324.839 863.517 326.444 865.078 328.304 866.283C371.229 894.347 419.386 913.439 469.88 922.413C470.86 922.581 471.852 922.67 472.846 922.676ZM756.656 842.949C755.449 841.089 753.887 839.485 752.059 838.23C750.232 836.975 748.175 836.092 746.006 835.633C743.837 835.174 741.598 835.147 739.419 835.554C737.239 835.961 735.162 836.794 733.304 838.005C694.16 863.581 650.255 880.991 604.221 889.19C600.068 889.927 596.342 892.192 593.776 895.54C591.211 898.887 589.992 903.074 590.36 907.276C590.728 911.477 592.656 915.389 595.765 918.239C598.873 921.09 602.936 922.673 607.154 922.676C608.148 922.67 609.14 922.581 610.12 922.413C660.614 913.439 708.771 894.347 751.696 866.283C755.447 863.847 758.078 860.019 759.008 855.643C759.938 851.267 759.092 846.701 756.656 842.949ZM879.84 691.7C881.782 692.464 883.851 692.856 885.938 692.853C889.342 692.854 892.667 691.825 895.476 689.902C898.284 687.978 900.446 685.25 901.675 682.076C936.942 591.316 936.942 490.641 901.675 399.881C900.058 395.707 896.849 392.347 892.754 390.539C888.66 388.731 884.014 388.623 879.84 390.24C875.666 391.858 872.306 395.066 870.498 399.161C868.69 403.256 868.582 407.902 870.2 412.076C902.433 494.988 902.433 586.969 870.2 669.881C869.4 671.947 869.014 674.15 869.066 676.364C869.117 678.579 869.605 680.761 870.5 682.788C871.395 684.814 872.681 686.644 874.284 688.173C875.886 689.702 877.774 690.9 879.84 691.7ZM716.463 195.239C661.771 167.515 601.317 153.068 540.001 153.068C478.684 153.068 418.23 167.515 363.539 195.239C361.552 196.241 359.784 197.627 358.335 199.317C356.887 201.006 355.787 202.965 355.099 205.082C354.412 207.198 354.15 209.429 354.328 211.648C354.507 213.866 355.123 216.026 356.141 218.005C357.158 219.984 358.557 221.742 360.258 223.178C361.958 224.614 363.926 225.698 366.047 226.37C368.168 227.042 370.402 227.287 372.619 227.092C374.835 226.896 376.991 226.264 378.963 225.231C428.878 199.945 484.046 186.768 540.001 186.768C595.955 186.768 651.124 199.945 701.039 225.231C703.415 226.468 706.055 227.113 708.734 227.11C712.52 227.116 716.198 225.847 719.176 223.509C722.154 221.17 724.258 217.898 725.15 214.218C726.042 210.539 725.671 206.666 724.095 203.223C722.519 199.78 719.831 196.968 716.463 195.239ZM708.75 389.103H371.25C369.034 389.102 366.839 389.538 364.791 390.385C362.743 391.233 360.882 392.476 359.315 394.043C357.747 395.61 356.505 397.471 355.657 399.519C354.809 401.567 354.374 403.762 354.375 405.978V591.603H337.5C335.284 591.602 333.089 592.038 331.041 592.885C328.993 593.733 327.132 594.976 325.565 596.543C323.997 598.11 322.755 599.971 321.907 602.019C321.059 604.067 320.624 606.262 320.625 608.478C320.648 630.849 329.546 652.296 345.364 668.115C361.182 683.933 382.63 692.83 405 692.853H675C697.37 692.83 718.818 683.933 734.636 668.115C750.454 652.296 759.352 630.849 759.375 608.478C759.376 606.262 758.941 604.067 758.093 602.019C757.245 599.971 756.003 598.11 754.435 596.543C752.868 594.976 751.007 593.733 748.959 592.885C746.911 592.038 744.716 591.602 742.5 591.603H725.625V405.978C725.626 403.762 725.191 401.567 724.343 399.519C723.495 397.471 722.253 395.61 720.685 394.043C719.118 392.476 717.257 391.233 715.209 390.385C713.161 389.538 710.966 389.102 708.75 389.103ZM388.125 422.853H691.875V591.603H388.125V422.853ZM675 659.103H405C394.533 659.09 384.326 655.84 375.778 649.798C367.231 643.755 360.762 635.217 357.259 625.353H722.741C719.238 635.217 712.769 643.755 704.222 649.798C695.674 655.84 685.467 659.09 675 659.103Z" fill="black"/>
<path d="M540 929.104C549.32 929.104 556.875 921.548 556.875 912.229C556.875 902.909 549.32 895.354 540 895.354C530.68 895.354 523.125 902.909 523.125 912.229C523.125 921.548 530.68 929.104 540 929.104Z" fill="black"/>
</svg>
