<svg width="219" height="300" viewBox="0 0 219 300" fill="none" xmlns="http://www.w3.org/2000/svg">
<path d="M145.834 232.031V213.802C145.834 204.133 141.993 194.859 135.155 188.022C128.318 181.185 119.045 177.344 109.375 177.344H54.6878C45.0185 177.344 35.7452 181.185 28.9079 188.022C22.0706 194.859 18.2295 204.133 18.2295 213.802V232.031" stroke="#FACC15" stroke-width="18" stroke-linecap="round" stroke-linejoin="round"/>
<path d="M145.833 69.1357C153.651 71.1625 160.575 75.728 165.518 82.1155C170.46 88.503 173.142 96.3509 173.142 104.427C173.142 112.504 170.46 120.352 165.518 126.739C160.575 133.127 153.651 137.692 145.833 139.719" stroke="#FACC15" stroke-width="18" stroke-linecap="round" stroke-linejoin="round"/>
<path d="M200.521 232.031V213.802C200.514 205.724 197.826 197.877 192.877 191.492C187.928 185.108 180.998 180.548 173.177 178.528" stroke="#FACC15" stroke-width="18" stroke-linecap="round" stroke-linejoin="round"/>
<path d="M82.0316 140.885C102.167 140.885 118.49 124.562 118.49 104.427C118.49 84.2917 102.167 67.9688 82.0316 67.9688C61.8962 67.9688 45.5732 84.2917 45.5732 104.427C45.5732 124.562 61.8962 140.885 82.0316 140.885Z" stroke="#FACC15" stroke-width="18" stroke-linecap="round" stroke-linejoin="round"/>
</svg>
