<svg width="300" height="300" viewBox="0 0 300 300" fill="none" xmlns="http://www.w3.org/2000/svg">
<path d="M150 262.5V87.5" stroke="#FACC15" stroke-width="20" stroke-linecap="round" stroke-linejoin="round"/>
<path d="M200 150L225 175L275 125" stroke="#FACC15" stroke-width="20" stroke-linecap="round" stroke-linejoin="round"/>
<path d="M275 75V50C275 46.6848 273.683 43.5054 271.339 41.1612C268.995 38.817 265.815 37.5 262.5 37.5H200C186.739 37.5 174.021 42.7678 164.645 52.1447C155.268 61.5215 150 74.2392 150 87.5C150 74.2392 144.732 61.5215 135.355 52.1447C125.979 42.7678 113.261 37.5 100 37.5H37.5C34.1848 37.5 31.0054 38.817 28.6612 41.1612C26.317 43.5054 25 46.6848 25 50V212.5C25 215.815 26.317 218.995 28.6612 221.339C31.0054 223.683 34.1848 225 37.5 225H112.5C122.446 225 131.984 228.951 139.017 235.983C146.049 243.016 150 252.554 150 262.5C150 252.554 153.951 243.016 160.983 235.983C168.016 228.951 177.554 225 187.5 225H262.5C265.815 225 268.995 223.683 271.339 221.339C273.683 218.995 275 215.815 275 212.5V196.25" stroke="#FACC15" stroke-width="20" stroke-linecap="round" stroke-linejoin="round"/>
</svg>
