<svg width="291" height="300" viewBox="0 0 291 300" fill="none" xmlns="http://www.w3.org/2000/svg">
<path d="M187.039 160.756L205.347 263.792C205.552 265.005 205.382 266.252 204.859 267.366C204.337 268.48 203.486 269.408 202.422 270.026C201.358 270.643 200.13 270.921 198.904 270.822C197.677 270.723 196.51 270.252 195.558 269.472L152.294 237C150.206 235.439 147.669 234.596 145.062 234.596C142.454 234.596 139.917 235.439 137.829 237L94.4921 269.46C93.5412 270.239 92.3755 270.709 91.1505 270.808C89.9255 270.907 88.6994 270.63 87.6358 270.014C86.5722 269.398 85.7217 268.473 85.1978 267.361C84.6738 266.25 84.5013 265.004 84.7032 263.792L103 160.756" stroke="#FACC15" stroke-width="20" stroke-linecap="round" stroke-linejoin="round"/>
<path d="M145.019 174.17C185.065 174.17 217.529 141.706 217.529 101.66C217.529 61.6141 185.065 29.1504 145.019 29.1504C104.973 29.1504 72.5098 61.6141 72.5098 101.66C72.5098 141.706 104.973 174.17 145.019 174.17Z" stroke="#FACC15" stroke-width="20" stroke-linecap="round" stroke-linejoin="round"/>
</svg>
