<svg width="229" height="300" viewBox="0 0 229 300" fill="none" xmlns="http://www.w3.org/2000/svg">
<path d="M142.578 54.9482H57.0309C51.989 54.9482 47.1537 56.9511 43.5885 60.5163C40.0234 64.0814 38.0205 68.9168 38.0205 73.9587V226.042C38.0205 231.084 40.0234 235.919 43.5885 239.484C47.1537 243.05 51.989 245.052 57.0309 245.052H171.093C176.135 245.052 180.971 243.05 184.536 239.484C188.101 235.919 190.104 231.084 190.104 226.042V102.474L142.578 54.9482Z" stroke="#FACC15" stroke-width="16" stroke-linecap="round" stroke-linejoin="round"/>
<path d="M133.073 54.9482V92.9691C133.073 98.011 135.076 102.846 138.641 106.411C142.206 109.977 147.042 111.979 152.084 111.979H190.104" stroke="#FACC15" stroke-width="16" stroke-linecap="round" stroke-linejoin="round"/>
<path d="M95.0524 121.484H76.042" stroke="#FACC15" stroke-width="16" stroke-linecap="round" stroke-linejoin="round"/>
<path d="M152.084 159.505H76.042" stroke="#FACC15" stroke-width="16" stroke-linecap="round" stroke-linejoin="round"/>
<path d="M152.084 197.526H76.042" stroke="#FACC15" stroke-width="16" stroke-linecap="round" stroke-linejoin="round"/>
</svg>
