<svg width="1081" height="1080" viewBox="0 0 1081 1080" fill="none" xmlns="http://www.w3.org/2000/svg">
<path d="M1039.83 214.549C1035.76 211.359 1030.41 210.161 1025.42 211.41L978.775 222.716V143.437C978.775 138.341 976.48 133.532 972.515 130.326C968.566 127.119 963.402 125.854 958.39 126.934L540.025 215.781L121.66 126.917C116.682 125.887 111.468 127.119 107.536 130.326C103.57 133.532 101.275 138.341 101.275 143.437V222.716L54.616 211.41C49.5873 210.161 44.2885 211.342 40.2048 214.549C36.121 217.755 33.7754 222.632 33.7754 227.812V734.062C33.7754 741.859 39.1079 748.626 46.7016 750.465L334.707 820.041C314.508 855.529 303.775 895.32 303.775 936.562C303.775 945.894 311.319 953.437 320.65 953.437H759.4C759.519 953.437 759.654 953.454 759.738 953.437C769.07 953.437 776.613 945.894 776.613 936.562C776.613 935.364 776.495 934.183 776.259 933.069C775.685 893.076 765.003 854.533 745.36 820.041L1033.37 750.465C1040.94 748.626 1046.28 741.859 1046.28 734.062V227.812C1046.28 222.632 1043.9 217.738 1039.83 214.549ZM945.025 164.261V669.769L656.328 731.109C643.553 723.887 630.188 717.93 616.368 713.306C661.508 686.931 691.968 638.094 691.968 582.171C691.968 504.107 632.754 439.678 556.9 431.241V246.696L945.025 164.261ZM539.755 464.012C539.857 464.012 539.924 464.062 540.025 464.062C540.127 464.062 540.194 464.012 540.295 464.012C605.348 464.164 658.218 517.101 658.218 582.171C658.218 647.325 605.197 700.346 540.025 700.346C474.854 700.346 421.833 647.325 421.833 582.171C421.833 517.101 474.702 464.164 539.755 464.012ZM135.025 164.261L523.15 246.712V431.241C447.297 439.678 388.083 504.107 388.083 582.171C388.083 638.094 418.559 686.947 463.683 713.306C449.862 717.913 436.497 723.887 423.74 731.092L135.025 669.769V164.261ZM67.5254 249.261L101.275 257.428V683.437C101.275 691.419 106.844 698.287 114.64 699.958L386.176 757.654C374.769 767.458 364.39 778.342 355.059 790.256L67.5254 720.782V249.261ZM338.217 919.687C341.17 884.081 353.405 850.146 374.094 820.564C374.566 820.041 375.022 819.484 375.427 818.893C391.255 796.517 411.185 777.937 434.709 763.695C435.012 763.526 435.265 763.341 435.552 763.138L435.62 763.087L435.67 763.054C498.614 725.119 581.454 725.119 644.397 763.054L644.448 763.087L644.515 763.138C644.802 763.341 645.055 763.526 645.359 763.695C668.883 777.954 688.812 796.517 704.641 818.893C705.029 819.467 705.485 820.007 705.94 820.53C726.663 850.112 738.897 884.081 741.85 919.687H338.217ZM1012.53 720.782L725.009 790.239C715.644 778.326 705.265 767.424 693.841 757.603L965.41 699.941C973.207 698.287 978.775 691.419 978.775 683.437V257.445L1012.53 249.277V720.782Z" fill="black"/>
<path d="M169.213 223.948C171.356 214.869 180.469 209.317 189.514 211.393L476.389 278.893C485.451 281.036 491.07 290.115 488.944 299.194C487.121 306.956 480.169 312.204 472.524 312.204C471.242 312.204 469.943 312.052 468.643 311.766L181.768 244.266C172.706 242.106 167.087 233.027 169.213 223.948ZM181.785 311.749L468.66 379.249C469.959 379.552 471.259 379.687 472.541 379.687C480.186 379.687 487.121 374.439 488.961 366.677C491.087 357.598 485.468 348.519 476.406 346.376L189.531 278.876C180.486 276.801 171.373 282.369 169.23 291.431C167.087 300.527 172.706 309.606 181.785 311.749ZM181.785 379.249L417.529 434.767C418.828 435.071 420.128 435.206 421.41 435.206C429.055 435.206 435.99 429.958 437.83 422.196C439.956 413.117 434.336 404.038 425.275 401.895L189.531 346.376C180.486 344.301 171.373 349.852 169.23 358.931C167.087 368.027 172.706 377.106 181.785 379.249ZM373.097 457.076L189.497 413.876C180.536 411.817 171.356 417.352 169.213 426.448C167.087 435.51 172.706 444.589 181.768 446.732L365.368 489.932C366.668 490.236 367.967 490.371 369.249 490.371C376.894 490.371 383.83 485.122 385.669 477.36C387.795 468.298 382.176 459.219 373.097 457.076ZM181.785 514.249L339.229 551.374C340.528 551.677 341.828 551.812 343.11 551.812C350.754 551.812 357.673 546.564 359.53 538.802C361.656 529.74 356.036 520.644 346.974 518.501L189.531 481.376C180.486 479.317 171.39 484.869 169.23 493.931C167.087 503.01 172.706 512.106 181.785 514.249ZM181.785 581.749L334.504 617.692C335.803 617.996 337.103 618.131 338.385 618.131C346.03 618.131 352.965 612.883 354.805 605.121C356.931 596.042 351.311 586.963 342.25 584.82L189.531 548.876C180.486 546.817 171.373 552.369 169.23 561.431C167.087 570.527 172.706 579.606 181.785 581.749ZM363.31 657.214L189.497 616.376C180.418 614.317 171.356 619.852 169.213 628.948C167.087 638.01 172.706 647.106 181.785 649.232L355.598 690.069C356.897 690.373 358.179 690.508 359.462 690.508C367.106 690.508 374.042 685.26 375.881 677.497C378.008 668.436 372.388 659.34 363.31 657.214ZM607.508 312.187C608.79 312.187 610.089 312.036 611.389 311.749L898.264 244.249C907.326 242.106 912.945 233.027 910.819 223.948C908.676 214.869 899.546 209.317 890.518 211.393L603.643 278.893C594.581 281.036 588.962 290.115 591.088 299.194C592.928 306.939 599.863 312.187 607.508 312.187ZM607.508 379.687C608.79 379.687 610.089 379.536 611.389 379.249L898.264 311.749C907.326 309.606 912.945 300.527 910.819 291.448C908.676 282.386 899.546 276.817 890.518 278.893L603.643 346.393C594.581 348.536 588.962 357.615 591.088 366.694C592.928 374.439 599.863 379.687 607.508 379.687ZM890.535 346.376L654.791 401.895C645.729 404.038 640.11 413.117 642.236 422.196C644.059 429.958 651.011 435.206 658.656 435.206C659.938 435.206 661.238 435.054 662.537 434.767L898.281 379.249C907.343 377.106 912.962 368.027 910.836 358.948C908.693 349.852 899.563 344.301 890.535 346.376ZM890.535 413.876L706.935 457.076C697.856 459.219 692.237 468.298 694.363 477.377C696.186 485.139 703.138 490.387 710.783 490.387C712.065 490.387 713.364 490.236 714.664 489.949L898.264 446.749C907.326 444.606 912.945 435.527 910.819 426.465C908.693 417.352 899.445 411.817 890.535 413.876ZM890.535 481.376L733.091 518.501C724.03 520.644 718.41 529.74 720.536 538.802C722.376 546.564 729.311 551.812 736.956 551.812C738.238 551.812 739.538 551.661 740.837 551.374L898.281 514.249C907.343 512.106 912.962 503.01 910.836 493.948C908.676 484.869 899.563 479.317 890.535 481.376ZM890.535 548.876L737.816 584.82C728.754 586.963 723.135 596.042 725.261 605.121C727.084 612.883 734.036 618.131 741.681 618.131C742.963 618.131 744.263 617.979 745.562 617.692L898.281 581.749C907.343 579.606 912.962 570.527 910.836 561.448C908.693 552.369 899.563 546.817 890.535 548.876ZM890.535 616.376L716.723 657.214C707.644 659.34 702.025 668.436 704.151 677.497C705.973 685.277 712.926 690.508 720.57 690.508C721.853 690.508 723.135 690.356 724.435 690.069L898.247 649.232C907.326 647.106 912.945 638.01 910.819 628.948C908.693 619.852 899.563 614.317 890.535 616.376Z" fill="black"/>
</svg>
