<svg width="1081" height="1080" viewBox="0 0 1081 1080" fill="none" xmlns="http://www.w3.org/2000/svg">
<path d="M1002.4 668.925C1018.94 653.569 1029.4 631.8 1029.4 607.5V540C1029.4 493.425 991.6 455.625 945.025 455.625H911.275C864.7 455.625 826.9 493.425 826.9 540V607.5C826.9 631.125 836.857 652.556 852.55 667.913C843.269 672.806 834.663 679.387 827.575 687.656L751.638 776.25H675.025C634.357 776.25 600.269 805.275 592.338 843.75H487.713C479.95 805.275 445.863 776.25 405.025 776.25H328.413L252.475 687.656C245.388 679.387 236.95 672.806 227.5 667.913C243.194 652.556 253.15 631.294 253.15 607.5V540C253.15 493.425 215.35 455.625 168.775 455.625H135.025C88.4504 455.625 50.6504 493.425 50.6504 540V607.5C50.6504 631.8 61.1129 653.569 77.6504 668.925C51.6629 683.269 33.7754 710.775 33.7754 742.5V961.875C33.7754 971.156 41.3691 978.75 50.6504 978.75C59.9316 978.75 67.5254 971.156 67.5254 961.875V742.5C67.5254 714.656 90.3066 691.875 118.15 691.875H188.35C203.2 691.875 217.207 698.287 226.825 709.594L307.825 804.094C311.032 807.806 315.757 810 320.65 810H405.025C426.963 810 445.863 824.175 452.782 843.75H302.425C286.9 843.75 272.557 836.831 262.938 824.681L215.688 765.619C209.95 758.362 199.319 757.181 191.894 762.919C184.638 768.656 183.457 779.287 189.194 786.712L219.569 824.85C219.569 824.85 219.232 826.2 219.232 826.875V961.875C219.232 971.156 226.825 978.75 236.107 978.75H843.607C852.888 978.75 860.482 971.156 860.482 961.875V826.875C860.482 826.875 860.144 825.525 860.144 824.85L890.519 786.712C896.425 779.456 895.244 768.825 887.819 762.919C880.563 757.181 869.932 758.194 864.025 765.619L816.775 824.681C807.157 836.831 792.644 843.75 777.288 843.75H626.932C633.85 824.175 652.582 810 674.688 810H759.063C763.957 810 768.682 807.806 771.888 804.094L852.888 709.594C862.507 698.287 876.513 691.875 891.363 691.875H961.563C989.407 691.875 1012.19 714.656 1012.19 742.5V961.875C1012.19 971.156 1019.78 978.75 1029.06 978.75C1038.34 978.75 1045.94 971.156 1045.94 961.875V742.5C1045.94 710.775 1028.05 683.437 1002.06 668.925H1002.4ZM135.025 489.375H168.775C190.713 489.375 209.275 503.55 216.363 523.125H186.832C158.65 523.125 134.013 542.194 127.263 569.7C124.225 582.019 113.088 590.625 100.432 590.625H84.5691V540C84.5691 512.156 107.35 489.375 135.194 489.375H135.025ZM135.025 658.125C113.088 658.125 94.5254 643.95 87.4379 624.375H100.094C128.275 624.375 152.913 605.306 159.663 577.8C162.7 565.481 173.838 556.875 186.494 556.875H219.232V607.5C219.232 635.344 196.45 658.125 168.607 658.125H134.857H135.025ZM777.625 877.5H826.9V945H253.15V877.5H777.625ZM911.275 489.375H945.025C972.869 489.375 995.65 512.156 995.65 540V590.625H979.788C967.132 590.625 955.994 582.019 952.957 569.7C946.038 542.362 921.569 523.125 893.388 523.125H863.857C870.775 503.55 889.338 489.375 911.444 489.375H911.275ZM911.275 658.125C883.432 658.125 860.65 635.344 860.65 607.5V556.875H893.388C906.044 556.875 917.182 565.481 920.219 577.8C927.138 605.138 951.607 624.375 979.788 624.375H992.444C985.525 643.95 966.963 658.125 944.857 658.125H911.107H911.275Z" fill="black"/>
<path d="M429.663 436.05C446.2 448.369 455.65 466.087 455.65 484.819V540.169C455.65 562.106 469.825 580.669 489.4 587.756V590.794C489.4 618.637 512.182 641.419 540.025 641.419C567.869 641.419 590.65 618.637 590.65 590.794V587.756C610.225 580.838 624.4 562.275 624.4 540.169V482.625C624.4 465.075 633.344 448.537 648.869 437.231C696.963 402.469 725.65 346.275 725.65 287.044C725.65 234.394 703.038 183.937 663.888 148.669C624.569 113.569 571.919 96.6937 518.932 102.6C436.075 111.712 367.563 178.369 356.257 260.887C346.975 328.725 374.988 395.887 429.663 436.387V436.05ZM540.025 607.5C530.744 607.5 523.15 599.906 523.15 590.625H556.9C556.9 599.906 549.307 607.5 540.025 607.5ZM590.65 540C590.65 549.281 583.057 556.875 573.775 556.875H506.275C496.994 556.875 489.4 549.281 489.4 540V506.25H590.65V540ZM389.669 265.275C398.95 197.944 454.807 143.437 522.644 136.012C566.688 131.119 608.707 144.619 641.275 173.812C673.507 202.669 691.9 243.844 691.9 287.044C691.9 335.475 668.444 381.544 629.125 410.062C607.525 425.756 594.194 448.2 591.325 472.837H557.069V344.756L602.8 299.025C609.382 292.444 609.382 281.812 602.8 275.231C596.219 268.65 585.588 268.65 579.007 275.231L540.363 313.875L501.719 275.231C495.138 268.65 484.507 268.65 477.925 275.231C471.344 281.812 471.344 292.444 477.925 299.025L523.657 344.756V472.837H489.063C485.688 448.031 471.85 425.25 450.25 409.219C405.532 376.144 382.582 321.131 390.175 265.444L389.669 265.275ZM759.4 286.875C759.4 296.156 766.994 303.75 776.275 303.75H843.775C853.057 303.75 860.65 296.156 860.65 286.875C860.65 277.594 853.057 270 843.775 270H776.275C766.994 270 759.4 277.594 759.4 286.875ZM759.4 202.5C761.932 202.5 764.463 201.994 766.994 200.644L834.494 166.894C842.763 162.675 846.138 152.55 842.088 144.281C837.869 136.012 827.744 132.637 819.475 136.687L751.975 170.437C743.707 174.656 740.332 184.781 744.382 193.05C747.419 198.956 753.325 202.331 759.569 202.331L759.4 202.5ZM751.807 403.144L819.307 436.894C821.669 438.075 824.369 438.75 826.9 438.75C833.144 438.75 839.05 435.375 842.088 429.469C846.307 421.2 842.932 411.075 834.494 406.856L766.994 373.106C758.557 368.887 748.432 372.262 744.382 380.7C740.163 388.969 743.538 399.094 751.975 403.312L751.807 403.144ZM236.275 303.75H303.775C313.057 303.75 320.65 296.156 320.65 286.875C320.65 277.594 313.057 270 303.775 270H236.275C226.994 270 219.4 277.594 219.4 286.875C219.4 296.156 226.994 303.75 236.275 303.75ZM313.057 372.937L245.557 406.687C237.288 410.906 233.913 421.031 237.963 429.3C241 435.206 246.907 438.581 253.15 438.581C255.682 438.581 258.213 438.075 260.744 436.725L328.244 402.975C336.513 398.756 339.888 388.631 335.838 380.362C331.619 372.094 321.494 368.719 313.225 372.769L313.057 372.937ZM245.557 166.894L313.057 200.644C315.419 201.825 318.119 202.5 320.65 202.5C326.894 202.5 332.8 199.125 335.838 193.219C340.057 184.95 336.682 174.825 328.244 170.606L260.744 136.856C252.475 132.637 242.35 136.012 238.132 144.45C233.913 152.719 237.288 162.844 245.725 167.062L245.557 166.894Z" fill="black"/>
</svg>
