<svg width="1081" height="1080" viewBox="0 0 1081 1080" fill="none" xmlns="http://www.w3.org/2000/svg">
<g clip-path="url(#clip0_630_2000)">
<path d="M1026.63 35.522C1026.63 31.0464 1024.85 26.7542 1021.69 23.5895C1018.53 20.4249 1014.23 18.647 1009.76 18.647H42.9551C38.4795 18.647 34.1873 20.4249 31.0227 23.5895C27.858 26.7542 26.0801 31.0464 26.0801 35.522V799.875C26.0801 804.351 27.858 808.643 31.0227 811.808C34.1873 814.972 38.4795 816.75 42.9551 816.75H787.008L789.741 1003.22C789.994 1018.54 796.253 1033.14 807.171 1043.89C818.089 1054.64 832.792 1060.67 848.112 1060.68H848.973H852.989C860.648 1060.57 868.21 1058.95 875.242 1055.91C882.275 1052.88 888.641 1048.49 893.977 1042.99C899.313 1037.49 903.514 1031 906.34 1023.88C909.166 1016.76 910.562 1009.16 910.448 1001.5L907.731 816.75H1009.76C1014.23 816.75 1018.53 814.972 1021.69 811.808C1024.85 808.643 1026.63 804.351 1026.63 799.875V638.567C1062.61 595.44 1082.31 541.058 1082.31 484.895C1082.31 428.732 1062.61 374.349 1026.63 331.223V35.522ZM992.883 52.397V175.5H59.8301V52.397H992.883ZM59.8301 209.25H992.883V298.013C963.392 274.163 928.676 257.63 891.573 249.766C854.469 241.902 816.031 242.93 779.401 252.765C742.771 262.601 708.988 280.965 680.814 306.357C652.64 331.748 630.874 363.447 617.297 398.861C603.719 434.275 598.714 472.399 602.692 510.118C606.669 547.837 619.516 584.079 640.182 615.881C660.849 647.684 688.747 674.146 721.598 693.102C754.449 712.058 791.319 722.972 829.195 724.95L829.887 771.593L803.292 771.981C799.853 771.999 796.506 773.09 793.717 775.102C790.928 777.114 788.836 779.945 787.733 783.203H59.8301V209.25ZM820.589 805.343L873.779 804.566L874.167 830.47L820.977 831.263L820.589 805.343ZM869.763 1019.49C867.52 1021.81 864.839 1023.66 861.876 1024.94C858.913 1026.21 855.726 1026.89 852.499 1026.93H848.466H848.112C841.67 1026.92 835.49 1024.38 830.894 1019.87C826.298 1015.35 823.653 1009.22 823.525 1002.78L821.5 865.013L874.707 864.22L876.732 1001.99C876.791 1005.22 876.204 1008.43 875.008 1011.44C873.811 1014.44 872.028 1017.18 869.763 1019.49ZM906.398 783C905.483 779.448 903.42 776.298 900.53 774.04C897.64 771.782 894.085 770.542 890.418 770.513H890.164L863.569 770.901L862.878 724.039C910.405 719.812 955.617 701.61 992.815 671.726V783.101L906.398 783ZM1023.68 582.998C1004.25 619.008 974.566 648.445 938.398 667.584C902.229 686.722 861.196 694.703 820.491 690.515C779.786 686.328 741.238 670.16 709.723 644.058C678.209 617.957 655.145 583.094 643.449 543.881C631.754 504.667 631.953 462.866 644.02 423.766C656.088 384.666 679.482 350.024 711.244 324.223C743.005 298.422 781.705 282.622 822.448 278.821C863.191 275.021 904.146 283.391 940.131 302.873C988.332 328.983 1024.2 373.153 1039.87 425.686C1055.53 478.219 1049.71 534.821 1023.68 583.065V582.998Z" fill="black"/>
<path d="M918.329 97.0142H592.338V130.764H918.329V97.0142Z" fill="black"/>
<path d="M197.784 97.0142H122.049V130.764H197.784V97.0142Z" fill="black"/>
<path d="M315.79 97.0142H240.072V130.764H315.79V97.0142Z" fill="black"/>
<path d="M922.817 335.053C893.204 319.051 859.51 312.189 825.997 315.335C792.484 318.481 760.657 331.493 734.538 352.726C708.42 373.96 689.184 402.461 679.263 434.626C669.342 466.791 669.181 501.176 678.801 533.432C688.42 565.689 707.389 594.369 733.307 615.846C759.225 637.323 790.93 650.632 824.412 654.091C857.894 657.551 891.65 651.004 921.412 635.28C951.174 619.556 975.605 595.36 991.616 565.751C1013.03 526.024 1017.81 479.426 1004.91 436.178C992.015 392.93 962.491 356.563 922.817 335.053ZM961.9 549.703C946.884 577.466 922.708 599.163 893.489 611.099C864.27 623.035 831.817 624.471 801.658 615.163C771.499 605.855 745.5 586.379 728.091 560.052C710.681 533.725 702.938 502.176 706.181 470.78C709.424 439.385 723.451 410.084 745.874 387.871C768.296 365.658 797.727 351.906 829.152 348.959C860.577 346.011 892.051 354.05 918.214 371.706C944.376 389.362 963.608 415.542 972.632 445.787C977.806 462.957 979.521 480.983 977.678 498.821C975.836 516.658 970.473 533.953 961.9 549.703ZM542.725 276.919H411.1C406.624 276.919 402.332 278.697 399.167 281.862C396.002 285.026 394.225 289.318 394.225 293.794V436.945H296.35V366.525C296.35 362.05 294.572 357.757 291.407 354.593C288.242 351.428 283.95 349.65 279.475 349.65H147.85C143.374 349.65 139.082 351.428 135.917 354.593C132.753 357.757 130.975 362.05 130.975 366.525V657.467C130.975 661.943 132.753 666.235 135.917 669.4C139.082 672.564 143.374 674.342 147.85 674.342H542.725C547.2 674.342 551.492 672.564 554.657 669.4C557.822 666.235 559.6 661.943 559.6 657.467V293.794C559.6 289.318 557.822 285.026 554.657 281.862C551.492 278.697 547.2 276.919 542.725 276.919ZM164.488 383.4H262.448V640.592H164.573L164.488 383.4ZM296.113 470.695H393.988V640.592H296.113V470.695ZM525.85 640.592H427.975V310.669H525.85V640.592Z" fill="black"/>
</g>
<defs>
<clipPath id="clip0_630_2000">
<rect width="1080" height="1080" fill="white" transform="translate(0.0253906)"/>
</clipPath>
</defs>
</svg>
