<svg width="1081" height="1081" viewBox="0 0 1081 1081" fill="none" xmlns="http://www.w3.org/2000/svg">
<path d="M437.089 334.799C438.776 334.799 465.776 329.736 475.901 326.361C484.339 324.674 491.089 316.236 489.401 307.799C487.714 299.361 479.276 292.611 470.839 294.299C459.026 295.986 445.526 299.361 433.714 302.736C425.276 304.424 418.526 314.549 421.901 322.986C423.589 329.736 430.339 334.799 437.089 334.799Z" fill="black"/>
<path d="M1058.09 527.174C1046.28 518.736 779.65 287.549 540.025 287.549C529.9 287.549 523.15 294.299 523.15 304.424C523.15 314.549 529.9 321.299 540.025 321.299C735.775 321.299 960.213 491.736 1019.28 540.674C960.213 589.611 735.775 760.049 540.025 760.049C344.275 760.049 119.838 589.611 60.7754 540.674C104.65 505.236 234.588 405.674 378.025 353.361C386.463 349.986 391.525 339.861 388.15 331.424C384.775 322.986 374.65 317.924 366.213 321.299C185.65 387.111 28.7129 522.111 21.9629 527.174C18.5879 530.549 16.9004 535.611 16.9004 540.674C16.9004 545.736 18.5879 550.799 21.9629 554.174C33.7754 562.611 300.4 793.799 540.025 793.799C779.65 793.799 1046.28 562.611 1058.09 554.174C1061.46 550.799 1063.15 545.736 1063.15 540.674C1063.15 535.611 1061.46 530.549 1058.09 527.174Z" fill="black"/>
<path d="M540.025 726.299C550.15 726.299 556.9 719.549 556.9 709.424C556.9 699.299 550.15 692.549 540.025 692.549C455.65 692.549 388.15 625.049 388.15 540.674C388.15 456.299 455.65 388.799 540.025 388.799C624.4 388.799 691.9 456.299 691.9 540.674C691.9 598.049 659.838 650.361 607.525 677.361C599.088 680.736 595.713 690.861 599.088 699.299C602.463 707.736 612.588 711.111 621.025 707.736C686.838 675.674 725.65 611.549 725.65 540.674C725.65 437.736 642.963 355.049 540.025 355.049C437.088 355.049 354.4 437.736 354.4 540.674C354.4 643.611 437.088 726.299 540.025 726.299ZM540.025 118.799C550.15 118.799 556.9 112.049 556.9 101.924V34.4238C556.9 24.2988 550.15 17.5488 540.025 17.5488C529.9 17.5488 523.15 24.2988 523.15 34.4238V101.924C523.15 112.049 529.9 118.799 540.025 118.799ZM221.088 209.924C224.463 216.674 234.588 223.424 243.025 216.674C251.463 211.611 254.838 203.174 249.775 194.736L216.025 127.236C212.65 118.799 202.525 115.424 194.088 120.486C185.65 123.861 182.275 133.986 187.338 142.424L221.088 209.924ZM837.025 218.361C845.463 223.424 857.275 216.674 858.963 211.611L892.713 144.111C896.088 135.674 892.713 125.549 885.963 122.174C877.525 118.799 867.4 122.174 864.025 128.924L830.275 196.424C825.213 203.174 828.588 213.299 837.025 218.361ZM540.025 962.549C529.9 962.549 523.15 969.299 523.15 979.424V1046.92C523.15 1057.05 529.9 1063.8 540.025 1063.8C550.15 1063.8 556.9 1057.05 556.9 1046.92V979.424C556.9 969.299 550.15 962.549 540.025 962.549ZM243.025 862.986C234.588 859.611 224.463 862.986 221.088 869.736L187.338 937.236C183.963 945.674 187.338 955.799 194.088 959.174C202.525 964.236 214.338 957.486 216.025 952.424L249.775 884.924C254.838 878.174 251.463 868.049 243.025 862.986ZM858.963 871.424C855.588 862.986 845.463 859.611 837.025 864.674C828.588 868.049 825.213 878.174 830.275 886.611L864.025 954.111C867.4 960.861 875.838 967.611 885.963 960.861C894.4 957.486 897.775 947.361 892.713 938.924L858.963 871.424Z" fill="black"/>
<path d="M624.4 540.674C624.4 550.799 631.15 557.549 641.275 557.549C651.4 557.549 658.15 550.799 658.15 540.674C658.15 474.861 605.838 422.549 540.025 422.549C529.9 422.549 523.15 429.299 523.15 439.424C523.15 449.549 529.9 456.299 540.025 456.299C587.275 456.299 624.4 493.424 624.4 540.674ZM459.025 567.674C455.65 559.236 445.525 554.174 437.088 557.549C428.65 560.924 423.588 571.049 426.963 579.486C445.525 626.736 491.088 657.111 538.338 657.111C548.463 657.111 555.213 650.361 555.213 640.236C555.213 630.111 548.463 623.361 538.338 623.361C504.588 625.049 472.525 601.424 459.025 567.674ZM251.463 468.111C246.4 459.674 236.275 457.986 227.838 463.049C175.525 495.111 126.588 527.174 126.588 527.174C121.525 528.861 118.15 535.611 118.15 540.674C118.15 545.736 121.525 550.799 124.9 554.174L175.525 587.924C178.9 589.611 190.713 594.674 199.15 582.861C204.213 574.424 202.525 564.299 194.088 559.236L165.4 540.674C183.963 528.861 214.338 510.299 244.713 490.049C253.15 486.674 254.838 474.861 251.463 468.111Z" fill="black"/>
</svg>
